# xmcd CD database file
# Copyright (C) 1996 Ti Kan
#
# Track frame offsets:
# 	170
# 	31650
# 	50690
# 	80915
# 	98187
# 	130465
#
# Disc length: 2625 seconds
#
# Revision: 1
# Processed by: cddbd v1.4b41PL1 Copyright (c) Steve Scherf et al.
# Submitted via: DiscPlay 3.2
#
DISCID=4d0a3f06
DTITLE=Amina Claudine Myers - Salutes Bessie Smith
DYEAR=1900
DGENRE=
TTITLE0=Wasted Life Blues
TTITLE1=Dirty No-Gooder's Blues
TTITLE2=Jailhouse Blues
TTITLE3=It Makes My Love Come Down
TTITLE4=The Blues (Straight To You)
TTITLE5=African Blues
EXTD=
EXTT0=
EXTT1=
EXTT2=
EXTT3=
EXTT4=
EXTT5=
PLAYORDER=
